<svg xmlns="http://www.w3.org/2000/svg" width="641" height="642">
    <path fill="#FFF" fill-rule="evenodd"
          d="M638.516 352.378c-6.233 66.046-32.335 125.555-71.63 173.206l-51.157-107.43c27.499-55.376 29.44-117.556 9.645-172.217l108.083 10.603c6.337 30.836 8.192 62.957 5.059 95.838zM429.568 131.333c-23.13-13.403-47.691-22.057-72.565-26.282l63.213-87.273c93.83 31.757 167.044 105.397 199.649 196.987l-115.304-11.333c-18.231-28.85-43.473-53.833-74.993-72.099zm-277.972 51.308L106.18 82.171C170.618 24.236 258.119-7.561 350.854 1.545c9.503 1.01 18.751 2.436 27.867 4.117l-68.402 96.587c-60.596 2.931-118.904 31.186-158.723 80.392zm-34.59 216.12L7.17 387.922a324.997 324.997 0 01-5.722-98.346c4.519-46.829 18.957-90.266 40.983-128.558l.193-.336a319.5 319.5 0 0134.513-48.713l49.414 109.241c-29.079 56.985-30.849 121.426-9.545 177.551zm94.633 111.438c22.645 13.122 46.661 21.696 71 26.015l-64.459 88.877C124.351 593.334 51.148 519.702 18.634 428.183l119.136 11.699c18.139 28.099 42.998 52.427 73.869 70.317zm279.689-53.455l47.111 98.95c-64.834 60.61-154.231 94.144-249.217 84.78-10.375-1.016-20.72-2.664-30.867-4.629l69.88-96.462c62.421-2.255 122.672-31.381 163.093-82.639z"/>
</svg>
