<svg xmlns="http://www.w3.org/2000/svg" width="960" height="960">
    <path fill="#2C1A4C" fill-rule="evenodd" d="M956.776 526.88c-9.34 98.756-48.453 187.74-107.333 258.989l-76.655-160.636c41.205-82.803 44.113-175.779 14.451-257.511l161.957 15.854c9.495 46.108 12.275 94.138 7.58 143.304zM643.68 196.358c-34.658-20.042-71.461-32.981-108.734-39.299l94.721-130.497c140.599 47.486 250.305 157.597 299.162 294.549l-172.776-16.946c-27.319-43.138-65.142-80.495-112.373-107.807zm-416.522 76.719l-68.053-150.229C255.661 36.219 386.776-11.325 525.733 2.29c14.24 1.509 28.096 3.642 41.756 6.157L464.993 152.869c-90.799 4.382-178.17 46.632-237.835 120.208zm-51.832 323.158L10.745 580.027a484.918 484.918 0 01-8.574-147.053c6.77-70.022 28.405-134.972 61.41-192.23l.29-.502a477.862 477.862 0 0151.714-72.839l74.044 163.345c-43.573 85.208-46.225 181.565-14.303 265.487zm141.802 166.629c33.932 19.622 69.918 32.442 106.389 38.9l-96.588 132.895C186.333 887.173 76.642 777.074 27.922 640.228l178.518 17.494c27.18 42.015 64.429 78.392 110.688 105.142zm419.096-79.929l70.594 147.957c-97.151 90.629-231.106 140.771-373.437 126.769-15.546-1.52-31.047-3.984-46.252-6.922L491.84 806.503c93.533-3.372 183.816-46.924 244.384-123.568z"/>
</svg>
