<svg xmlns="http://www.w3.org/2000/svg" width="1771" height="1772">
    <path fill="#2C1A4C" fill-rule="evenodd" d="M1766.869 972.561c-17.247 182.286-89.478 346.534-198.212 478.048l-141.539-296.46c76.108-152.843 81.475-324.49 26.7-475.362l299.053 29.261c17.534 85.107 22.669 173.76 13.998 264.513zm-578.198-610.084c-64.001-36.992-131.961-60.894-200.79-72.556l174.912-240.857c259.645 87.65 462.241 290.894 552.466 543.684l-319.028-31.274c-50.451-79.635-120.331-148.579-207.56-198.997zM419.46 504.06L293.799 226.79C472.11 66.888 714.241-20.87 970.856 4.262c26.297 2.785 51.886 6.721 77.112 11.364L858.691 282.198c-167.678 8.087-329.045 86.057-439.231 221.862zm-95.733 596.516L19.82 1070.66C1.235 983.71-4.811 892.426 3.986 799.228c12.503-129.249 52.455-249.134 113.407-354.823l.534-.927A882 882 0 01213.43 309.03l136.736 301.505c-80.465 157.275-85.386 335.138-26.439 490.041zm261.895 307.57c62.66 36.217 129.115 59.89 196.465 71.81l-178.366 245.293c-259.641-87.651-462.208-290.874-552.18-543.467l329.666 32.289c50.195 77.555 118.987 144.698 204.415 194.075zm773.961-147.513l130.356 273.08c-179.409 167.285-426.786 259.837-689.631 233.993-28.71-2.805-57.335-7.353-85.415-12.777l193.343-266.194c172.738-6.215 339.488-86.626 451.347-228.102z" opacity=".039"/>
</svg>
