<svg xmlns="http://www.w3.org/2000/svg" width="108" height="109">
    <defs>
        <linearGradient id="prefix__a" x1="0%" x2="24.192%" y1="97.03%" y2="0%">
            <stop offset="0%" stop-color="#755BD6"/>
            <stop offset="100%" stop-color="#B54DFD"/>
        </linearGradient>
    </defs>
    <path fill="#FFF" fill-rule="evenodd" d="M107.736 59.281c-1.051 11.108-5.455 21.118-12.084 29.133l-8.633-18.075c4.638-9.314 4.966-19.769 1.626-28.961l18.238 1.784a54.107 54.107 0 01.853 16.119zM72.487 22.102a36.674 36.674 0 00-12.243-4.418L70.909 3.003c15.829 5.341 28.18 17.727 33.681 33.132l-19.461-1.907a36.6 36.6 0 00-12.642-12.126zm-46.893 8.633l-7.663-16.902C28.802 4.089 43.563-1.259 59.208.272c1.603.17 3.163.41 4.701.693L52.362 17.221c-10.22.495-20.052 5.24-26.768 13.514zM19.76 67.083L1.228 65.259a54.507 54.507 0 01-.966-16.541 53.458 53.458 0 016.914-21.623l.033-.057a53.847 53.847 0 015.822-8.193l8.336 18.374c-4.905 9.585-5.201 20.424-1.607 29.864zm15.962 18.743A36.692 36.692 0 0047.7 90.201l-10.875 14.95C20.996 99.808 8.647 87.424 3.162 72.031L23.273 74a36.604 36.604 0 0012.449 11.826zm47.182-8.994l7.949 16.646c-10.937 10.194-26.019 15.835-42.043 14.26a56.761 56.761 0 01-5.207-.779l11.793-16.23c10.529-.381 20.69-5.276 27.508-13.897z"/>
    <path fill="url(#prefix__a)" d="M107.736 59.281c-1.051 11.108-5.455 21.118-12.084 29.133l-8.633-18.075c4.638-9.314 4.966-19.769 1.626-28.961l18.238 1.784a54.107 54.107 0 01.853 16.119zM72.487 22.102a36.674 36.674 0 00-12.243-4.418L70.909 3.003c15.829 5.341 28.18 17.727 33.681 33.132l-19.461-1.907a36.6 36.6 0 00-12.642-12.126zm-46.893 8.633l-7.663-16.902C28.802 4.089 43.563-1.259 59.208.272c1.603.17 3.163.41 4.701.693L52.362 17.221c-10.22.495-20.052 5.24-26.768 13.514zM19.76 67.083L1.228 65.259a54.507 54.507 0 01-.966-16.541 53.458 53.458 0 016.914-21.623l.033-.057a53.847 53.847 0 015.822-8.193l8.336 18.374c-4.905 9.585-5.201 20.424-1.607 29.864zm15.962 18.743A36.692 36.692 0 0047.7 90.201l-10.875 14.95C20.996 99.808 8.647 87.424 3.162 72.031L23.273 74a36.604 36.604 0 0012.449 11.826zm47.182-8.994l7.949 16.646c-10.937 10.194-26.019 15.835-42.043 14.26a56.761 56.761 0 01-5.207-.779l11.793-16.23c10.529-.381 20.69-5.276 27.508-13.897z"/>
</svg>
